<svg width="69" height="53" viewBox="0 0 69 53" fill="none" xmlns="http://www.w3.org/2000/svg">
<path fill-rule="evenodd" clip-rule="evenodd" d="M57.7997 0H10.7656C4.81939 0 -0.000976562 4.82036 -0.000976562 10.7666V41.9296C-0.000976562 47.8758 4.81939 52.6962 10.7656 52.6962H57.7997C63.746 52.6962 68.5663 47.8758 68.5663 41.9296V10.7666C68.5663 4.82036 63.746 0 57.7997 0ZM38.5551 26.3481C38.5551 28.455 38.0048 30.4317 37.0491 32.1549C36.9911 32.2635 36.926 32.3721 36.8608 32.4735C36.8029 32.5821 36.7377 32.6835 36.6653 32.7848C36.0209 33.813 35.21 34.7325 34.2832 35.5145C34.2362 35.5507 34.1891 35.5887 34.1421 35.6267L34.142 35.6267C34.095 35.6647 34.0479 35.7027 34.0008 35.7389C33.9067 35.8186 33.8053 35.891 33.704 35.9634C31.7128 37.4477 29.2438 38.3238 26.5866 38.3238C19.9833 38.3238 14.6108 32.9514 14.6108 26.3481C14.6108 19.7447 19.9833 14.3795 26.5866 14.3795C29.2438 14.3795 31.7128 15.2556 33.704 16.7399C32.7844 17.5292 31.9807 18.4487 31.3219 19.4768C29.9751 18.5428 28.346 17.9998 26.5866 17.9998C21.9816 17.9998 18.2311 21.7431 18.2311 26.3481C18.2311 30.953 21.9816 34.7036 26.5866 34.7036C28.346 34.7036 29.9751 34.1533 31.3219 33.2265L31.3599 33.1994L31.3601 33.1993C31.4471 33.1373 31.5293 33.0788 31.6115 33.0093C31.7128 32.9441 31.8069 32.8645 31.9011 32.7849L31.9011 32.7848C32.9365 31.9305 33.7619 30.8299 34.2832 29.5773C34.3556 29.4108 34.4208 29.2442 34.4715 29.0777C34.5439 28.8822 34.609 28.6867 34.6597 28.484C34.8407 27.8034 34.9349 27.0866 34.9349 26.3481C34.9349 25.6095 34.8407 24.8927 34.6597 24.2121C35.0869 22.764 35.9268 21.4969 37.0491 20.5484C38.0048 22.2644 38.5551 24.2411 38.5551 26.3481ZM41.988 38.3238C48.584 38.3238 53.9565 32.9514 53.9565 26.3481C53.9565 19.752 48.584 14.3795 41.988 14.3795C39.3235 14.3795 36.8545 15.2556 34.8633 16.7399C34.762 16.8051 34.6678 16.8775 34.5737 16.9572C34.4723 17.0296 34.3782 17.1092 34.2841 17.1889C33.3573 17.9708 32.5536 18.8904 31.902 19.9113C31.8296 20.0126 31.7644 20.1212 31.7065 20.2226C31.6666 20.2846 31.6295 20.3493 31.5917 20.4151C31.5678 20.4568 31.5435 20.499 31.5182 20.5412C30.5625 22.2572 30.0122 24.2411 30.0122 26.3481C30.0122 28.455 30.5625 30.4389 31.5182 32.1622C32.6405 31.2064 33.4876 29.9321 33.9076 28.484C33.7266 27.8034 33.6324 27.0866 33.6324 26.3481C33.6324 25.6095 33.7266 24.8927 33.9076 24.2121C33.9655 24.0094 34.0234 23.8139 34.0958 23.6184C34.1538 23.4519 34.2189 23.2781 34.2841 23.1188C34.8126 21.8662 35.6381 20.7656 36.6662 19.9113C36.7132 19.8751 36.762 19.8371 36.8109 19.7991C36.8598 19.7611 36.9087 19.7231 36.9558 19.6868C37.0499 19.6144 37.1513 19.542 37.2454 19.4768C38.5994 18.5428 40.2285 17.9998 41.988 17.9998C46.5929 17.9998 50.3362 21.7431 50.3362 26.3481C50.3362 30.953 46.5929 34.7036 41.988 34.7036C40.2285 34.7036 38.5994 34.1533 37.2454 33.2265C36.5866 34.2474 35.7829 35.1742 34.8633 35.9634C36.8545 37.4477 39.3235 38.3238 41.988 38.3238Z" fill="white"/>
</svg>
