<svg width="69" height="53" viewBox="0 0 69 53" fill="none" xmlns="http://www.w3.org/2000/svg">
<path d="M57.8007 0H10.7666C4.82036 0 0 4.82036 0 10.7666V41.9296C0 47.8758 4.82036 52.6962 10.7666 52.6962H57.8007C63.7469 52.6962 68.5673 47.8758 68.5673 41.9296V10.7666C68.5673 4.82036 63.7469 0 57.8007 0Z" fill="#351AFF"/>
<path d="M38.5555 26.3481C38.5555 28.4551 38.0053 30.4317 37.0495 32.1549C36.9916 32.2636 36.9264 32.3722 36.8613 32.4735C36.8033 32.5821 36.7382 32.6835 36.6658 32.7849C36.0214 33.813 35.2104 34.7326 34.2836 35.5145C34.1895 35.5869 34.0954 35.6666 34.0013 35.739C33.9071 35.8186 33.8058 35.891 33.7044 35.9634C31.7133 37.4477 29.2443 38.3238 26.587 38.3238C19.9837 38.3238 14.6113 32.9514 14.6113 26.3481C14.6113 19.7448 19.9837 14.3796 26.587 14.3796C29.2443 14.3796 31.7133 15.2557 33.7044 16.74C32.7849 17.5292 31.9812 18.4487 31.3223 19.4769C29.9756 18.5429 28.3465 17.9998 26.587 17.9998C21.9821 17.9998 18.2315 21.7431 18.2315 26.3481C18.2315 30.953 21.9821 34.7036 26.587 34.7036C28.3465 34.7036 29.9756 34.1533 31.3223 33.2265C31.4237 33.1541 31.5178 33.089 31.6119 33.0093C31.7133 32.9442 31.8074 32.8645 31.9015 32.7849C32.9369 31.9305 33.7623 30.8299 34.2836 29.5773C34.3561 29.4108 34.4212 29.2443 34.4719 29.0777C34.5443 28.8823 34.6095 28.6868 34.6602 28.484C34.8412 27.8034 34.9353 27.0866 34.9353 26.3481C34.9353 25.6096 34.8412 24.8927 34.6602 24.2121C35.0873 22.7641 35.9272 21.497 37.0495 20.5485C38.0053 22.2645 38.5555 24.2411 38.5555 26.3481Z" fill="white"/>
<path d="M53.956 26.3481C53.956 32.9514 48.5836 38.3238 41.9875 38.3238C39.323 38.3238 36.854 37.4477 34.8629 35.9634C35.7824 35.1742 36.5861 34.2474 37.245 33.2265C38.599 34.1533 40.2281 34.7036 41.9875 34.7036C46.5925 34.7036 50.3358 30.953 50.3358 26.3481C50.3358 21.7431 46.5925 17.9998 41.9875 17.9998C40.2281 17.9998 38.599 18.5429 37.245 19.4769C37.1509 19.542 37.0495 19.6144 36.9554 19.6868C36.8613 19.7593 36.7599 19.8389 36.6658 19.9113C35.6376 20.7657 34.8122 21.8662 34.2837 23.1188C34.2185 23.2781 34.1533 23.4519 34.0954 23.6184C34.023 23.8139 33.9651 24.0094 33.9071 24.2121C33.7261 24.8927 33.632 25.6096 33.632 26.3481C33.632 27.0866 33.7261 27.8034 33.9071 28.484C33.4872 29.9321 32.6401 31.2064 31.5178 32.1622C30.562 30.439 30.0118 28.4551 30.0118 26.3481C30.0118 24.2411 30.562 22.2572 31.5178 20.5412C31.583 20.4326 31.6409 20.324 31.706 20.2226C31.764 20.1213 31.8291 20.0127 31.9015 19.9113C32.5532 18.8904 33.3569 17.9709 34.2837 17.1889C34.3778 17.1092 34.4719 17.0296 34.5733 16.9572C34.6674 16.8775 34.7615 16.8051 34.8629 16.74C36.854 15.2557 39.323 14.3796 41.9875 14.3796C48.5836 14.3796 53.956 19.752 53.956 26.3481Z" fill="white"/>
<g clip-path="url(#clip0_62_1835)">
<path d="M53.954 26.3432C53.954 32.9465 48.5816 38.319 41.9855 38.319C39.321 38.319 36.852 37.4429 34.8609 35.9586C35.7805 35.1693 36.5841 34.2426 37.243 33.2217C38.597 34.1484 40.2261 34.6987 41.9855 34.6987C46.5905 34.6987 50.3338 30.9482 50.3338 26.3432C50.3338 21.7383 46.5905 17.9949 41.9855 17.9949C40.2261 17.9949 38.597 18.538 37.243 19.472C37.1489 19.5372 37.0475 19.6096 36.9534 19.682C36.8593 19.7544 36.7579 19.834 36.6638 19.9064C35.6356 20.7608 34.8102 21.8614 34.2817 23.114C34.2165 23.2732 34.1513 23.447 34.0934 23.6135C34.021 23.809 33.9631 24.0045 33.9052 24.2073C33.7242 24.8879 33.63 25.6047 33.63 26.3432C33.63 27.0817 33.7242 27.7985 33.9052 28.4791C33.4852 29.9272 32.6381 31.2016 31.5158 32.1573C30.5601 30.4341 30.0098 28.4502 30.0098 26.3432C30.0098 24.2362 30.5601 22.2523 31.5158 20.5363C31.581 20.4277 31.6389 20.3191 31.7041 20.2178C31.762 20.1164 31.8272 20.0078 31.8996 19.9064C32.5512 18.8855 33.3549 17.966 34.2817 17.184C34.3758 17.1044 34.4699 17.0247 34.5713 16.9523C34.6654 16.8727 34.7595 16.8003 34.8609 16.7351C36.852 15.2508 39.321 14.3747 41.9855 14.3747C48.5816 14.3747 53.954 19.7471 53.954 26.3432Z" fill="white"/>
<path d="M38.5536 26.3432C38.5536 28.4502 38.0033 30.4268 37.0475 32.1501C36.9896 32.2587 36.9244 32.3673 36.8593 32.4686C36.8014 32.5773 36.7362 32.6786 36.6638 32.78C36.0194 33.8081 35.2085 34.7277 34.2817 35.5096C34.1875 35.5821 34.0934 35.6617 33.9993 35.7341C33.9052 35.8137 33.8038 35.8862 33.7024 35.9586C31.7113 37.4429 29.2423 38.319 26.585 38.319C19.9817 38.319 14.6093 32.9465 14.6093 26.3432C14.6093 19.7399 19.9817 14.3747 26.585 14.3747C29.2423 14.3747 31.7113 15.2508 33.7024 16.7351C32.7829 17.5243 31.9792 18.4439 31.3203 19.472C29.9736 18.538 28.3445 17.9949 26.585 17.9949C21.9801 17.9949 18.2295 21.7383 18.2295 26.3432C18.2295 30.9482 21.9801 34.6987 26.585 34.6987C28.3445 34.6987 29.9736 34.1484 31.3203 33.2217C31.4217 33.1493 31.5158 33.0841 31.6099 33.0044C31.7113 32.9393 31.8054 32.8596 31.8996 32.78C32.9349 31.9256 33.7604 30.8251 34.2817 29.5725C34.3541 29.4059 34.4192 29.2394 34.4699 29.0729C34.5423 28.8774 34.6075 28.6819 34.6582 28.4791C34.8392 27.7985 34.9333 27.0817 34.9333 26.3432C34.9333 25.6047 34.8392 24.8879 34.6582 24.2073C35.0854 22.7592 35.9253 21.4921 37.0475 20.5436C38.0033 22.2596 38.5536 24.2362 38.5536 26.3432Z" fill="white"/>
</g>
<defs>
<clipPath id="clip0_62_1835">
<rect width="17.4066" height="12.8161" fill="white" transform="translate(26.7893 26.9047)"/>
</clipPath>
</defs>
</svg>
